<svg width="349" height="255" viewBox="0 0 349 255" fill="none" xmlns="http://www.w3.org/2000/svg">
<path d="M194.88 57.6563C177.172 58.8802 176.182 59.8698 174.958 77.5885C173.734 59.8698 172.745 58.8802 155.036 57.6563C172.745 56.4323 173.734 55.4427 174.958 37.7292C176.182 55.4427 177.172 56.4323 194.88 57.6563Z" fill="#50A9E3"/>
<path d="M308.578 103.724C290.87 104.948 289.88 105.938 288.656 123.656C287.437 105.938 286.443 104.948 268.734 103.724C286.443 102.5 287.437 101.51 288.656 83.7917C289.88 101.51 290.87 102.5 308.578 103.724Z" fill="#50A9E3"/>
<mask id="mask0_0_1" style="mask-type:luminance" maskUnits="userSpaceOnUse" x="214" y="0" width="42" height="41">
<path d="M214.333 0.989586H255.667V41H214.333V0.989586Z" fill="white"/>
</mask>
<g mask="url(#mask0_0_1)">
<path d="M254.719 20.9219C237.01 22.1458 236.021 23.1354 234.797 40.8542C233.573 23.1354 232.583 22.1458 214.875 20.9219C232.583 19.6979 233.573 18.7083 234.797 0.989586C236.021 18.7083 237.01 19.6979 254.719 20.9219Z" fill="#50A9E3"/>
</g>
<mask id="mask1_0_1" style="mask-type:luminance" maskUnits="userSpaceOnUse" x="307" y="19" width="42" height="42">
<path d="M307.667 19.6667H348.964V61H307.667V19.6667Z" fill="white"/>
</mask>
<g mask="url(#mask1_0_1)">
<path d="M348.349 40.8542C330.641 42.0729 329.646 43.0677 328.427 60.7813C327.203 43.0677 326.214 42.0729 308.505 40.8542C326.214 39.6302 327.203 38.6406 328.427 20.9219C329.646 38.6406 330.641 39.6302 348.349 40.8542Z" fill="#50A9E3"/>
</g>
<path d="M245.104 100.453C227.396 101.677 226.401 102.667 225.182 120.385C223.958 102.667 222.969 101.677 205.26 100.453C222.969 99.2292 223.958 98.2396 225.182 80.5208C226.401 98.2396 227.396 99.2292 245.104 100.453Z" fill="#50A9E3"/>
<mask id="mask2_0_1" style="mask-type:luminance" maskUnits="userSpaceOnUse" x="0" y="3" width="349" height="186">
<path d="M0.963531 3.16667H348.953V188.99H0.963531V3.16667Z" fill="white"/>
</mask>
<g mask="url(#mask2_0_1)">
<path d="M105.526 77.75C88.2604 76.2604 73.3906 73.9375 64.0625 79.849C44.9739 54.9531 28.4948 27.0885 6.07291 4.39584C4.90103 3.18751 3.02083 3.12501 1.85937 4.22396C0.6927 5.32292 0.66145 7.21876 1.79687 8.48438C23.7031 32.1042 39.2604 60.8802 57.7656 86.5833C51.9479 96.974 51.2135 115.87 56.2656 133.229C75.3646 116.401 91.849 97.6771 105.526 77.75ZM228.938 181.693C225.255 181.667 221.62 181.583 218.047 181.464C216.266 181.391 214.495 181.313 212.74 181.24C211.87 181.198 211.005 181.161 210.146 181.125C209.281 181.083 208.401 181.021 207.531 180.969C205.792 180.859 204.073 180.75 202.365 180.646C200.656 180.536 198.984 180.385 197.318 180.25C193.99 180 190.729 179.667 187.536 179.339C185.943 179.188 184.365 178.99 182.802 178.807C181.245 178.62 179.703 178.432 178.182 178.25C176.661 178.036 175.156 177.828 173.672 177.625C172.188 177.411 170.724 177.224 169.281 176.984C167.839 176.75 166.411 176.521 165.01 176.297C164.307 176.188 163.609 176.073 162.917 175.958C162.229 175.833 161.542 175.714 160.859 175.589C159.5 175.344 158.156 175.099 156.839 174.859C156.177 174.745 155.521 174.62 154.875 174.484C154.224 174.354 153.583 174.224 152.943 174.094C142.74 172.042 133.948 169.792 126.792 167.682C125.01 167.141 123.318 166.651 121.734 166.151C120.156 165.635 118.682 165.146 117.307 164.693C116.62 164.469 115.958 164.25 115.333 164.021C114.703 163.797 114.099 163.583 113.521 163.375C112.37 162.958 111.323 162.578 110.385 162.24C109.885 162.047 109.422 161.865 108.984 161.693C104.422 166.688 99.6667 171.609 94.8229 176.354L90.9271 180.167C116.781 185.76 147.26 188.99 179.906 188.99C212.484 188.99 242.917 185.771 268.734 180.198C254.99 181.38 241.651 181.818 228.938 181.693ZM86.3542 135.396C91.9115 140.208 98.3854 144.344 106.094 147.422C109.661 143.323 113.13 139.146 116.495 134.906C108.609 132.057 101.906 128.099 96.0781 123.422C103.13 126.677 111.031 129.141 119.969 130.448C123.62 125.688 127.135 120.849 130.516 115.938C118.151 115.255 107.427 112.432 97.9948 108.276C109.057 110.427 121.328 111.042 134.896 109.401C137.036 106.135 139.109 102.839 141.13 99.5104C132.495 99.2396 124.609 97.8646 117.37 95.6927C125.682 96.3073 134.573 96.0313 144.057 94.5885C147.318 88.9948 150.411 83.3281 153.328 77.5886C141.073 79.1823 124.745 79.4688 110.115 78.1354C95.7656 99.6094 78.2448 119.745 57.7969 137.724C62.875 151.974 74.3021 163.25 86.6667 168.021C92.0469 162.745 97.2552 157.313 102.266 151.745C95.7396 147.182 90.5833 141.604 86.3542 135.396ZM243.766 124.766C242.083 124.74 240.417 124.708 238.76 124.661C237.938 124.641 237.115 124.62 236.297 124.599C235.474 124.568 234.661 124.536 233.849 124.505C233.448 124.49 233.042 124.474 232.635 124.458C232.224 124.443 231.818 124.427 231.406 124.411C230.609 124.37 229.823 124.333 229.036 124.292C227.458 124.219 225.917 124.151 224.344 124.042C222.781 123.943 221.234 123.844 219.703 123.745C218.182 123.63 216.677 123.51 215.193 123.396C213.708 123.286 212.24 123.146 210.792 123.016C209.339 122.875 207.911 122.755 206.5 122.599C205.089 122.443 203.693 122.297 202.323 122.151C200.948 122 199.594 121.823 198.26 121.656C195.594 121.349 193.01 120.969 190.51 120.625C180.505 119.167 171.854 117.51 164.786 115.932C163.021 115.547 161.349 115.146 159.786 114.776C159 114.589 158.245 114.406 157.51 114.229C156.781 114.042 156.073 113.859 155.391 113.682C154.031 113.328 152.771 113.026 151.625 112.698C150.479 112.375 149.437 112.089 148.505 111.828C148.208 111.745 147.927 111.667 147.656 111.589L142.448 119.161L141.682 120.333L141.641 120.339L140.125 122.547C139.594 123.318 139.052 124.094 138.51 124.865C139.13 124.948 139.812 125.042 140.568 125.146C141.526 125.266 142.594 125.401 143.766 125.547C144.354 125.615 144.964 125.708 145.599 125.781C146.245 125.854 146.906 125.932 147.599 126.01C148.984 126.167 150.469 126.354 152.057 126.505C153.646 126.667 155.328 126.859 157.109 127.026C164.234 127.698 172.885 128.354 182.807 128.781C185.286 128.901 187.849 128.974 190.479 129.063C191.797 129.115 193.135 129.12 194.49 129.161C195.844 129.182 197.214 129.229 198.604 129.24C204.161 129.313 210.005 129.307 216.094 129.208C217.615 129.188 219.135 129.135 220.682 129.104C221.453 129.083 222.229 129.068 223.01 129.052C223.802 129.021 224.599 128.995 225.396 128.969C226.984 128.911 228.583 128.854 230.193 128.797C231.802 128.719 233.427 128.661 235.068 128.568C241.609 128.24 248.365 127.786 255.292 127.188C266.87 126.172 278.932 124.745 291.24 122.74C282.135 123.672 273.234 124.255 264.625 124.552C257.464 124.807 250.495 124.865 243.766 124.766ZM311.521 155.474C307.495 156.229 303.484 156.885 299.495 157.49C295.51 158.094 291.542 158.594 287.609 159.057C271.87 160.87 256.604 161.615 242.161 161.661C240.354 161.651 238.563 161.661 236.781 161.635C235.891 161.625 235.005 161.62 234.12 161.609C233.24 161.589 232.359 161.568 231.484 161.552C229.729 161.516 227.99 161.458 226.266 161.406C225.823 161.391 225.375 161.38 224.932 161.365C224.51 161.344 224.089 161.323 223.667 161.307C222.818 161.266 221.979 161.229 221.141 161.193C217.818 161.057 214.438 160.833 211.161 160.625C209.521 160.521 207.911 160.375 206.307 160.255C204.708 160.125 203.125 160.01 201.563 159.849C189.036 158.682 177.625 157.073 167.594 155.234C157.562 153.396 148.906 151.37 141.854 149.464C140.094 148.979 138.432 148.516 136.865 148.083C135.307 147.609 133.849 147.172 132.495 146.76C131.135 146.359 129.891 145.948 128.75 145.573C127.609 145.193 126.573 144.849 125.651 144.542C125.104 144.359 124.609 144.182 124.141 144.016C122.641 145.885 121.109 147.755 119.557 149.609L119.755 149.745L112.958 157.297L109.693 161.047C110.005 161.115 110.328 161.182 110.672 161.255C111.646 161.443 112.734 161.651 113.932 161.88C115.13 162.104 116.422 162.385 117.844 162.62C119.255 162.865 120.776 163.125 122.396 163.406C124.016 163.682 125.745 163.938 127.562 164.224C134.854 165.323 143.724 166.453 153.917 167.344C159.01 167.802 164.443 168.172 170.161 168.49C170.875 168.536 171.594 168.578 172.318 168.604C173.047 168.635 173.771 168.667 174.505 168.698C175.974 168.76 177.458 168.828 178.958 168.896C180.464 168.938 181.979 168.979 183.516 169.026C185.052 169.073 186.604 169.125 188.177 169.135C189.745 169.161 191.328 169.182 192.932 169.208C193.328 169.214 193.734 169.219 194.135 169.229C194.536 169.229 194.938 169.229 195.344 169.229C196.151 169.229 196.964 169.229 197.781 169.229C198.599 169.229 199.417 169.229 200.24 169.229C201.063 169.224 201.891 169.24 202.714 169.219C204.365 169.198 206.031 169.177 207.708 169.151C208.552 169.135 209.385 169.135 210.245 169.109C211.104 169.089 211.974 169.063 212.844 169.036C214.563 168.995 216.297 168.943 218.042 168.896C221.526 168.755 225.063 168.625 228.646 168.417C242.964 167.651 258.01 166.271 273.411 164.047C288.802 161.818 304.563 158.734 320.073 154.344C322.87 153.542 325.656 152.698 328.427 151.807C326.833 152.203 325.24 152.589 323.646 152.958C319.589 153.88 315.547 154.724 311.521 155.474ZM348.844 126.411C348.724 126.448 348.604 126.49 348.479 126.526C344.484 127.797 340.49 128.948 336.495 130C332.5 131.036 328.516 131.974 324.542 132.828C316.599 134.531 308.714 135.88 300.938 136.953C285.391 139.094 270.297 140.13 256.005 140.448C248.854 140.604 241.906 140.568 235.198 140.385C233.516 140.349 231.854 140.276 230.208 140.224L229.552 140.203L228.948 140.177C228.536 140.156 228.135 140.135 227.734 140.12C226.927 140.078 226.125 140.042 225.323 140C224.521 139.964 223.729 139.922 222.932 139.88C222.13 139.833 221.328 139.781 220.531 139.734C218.943 139.635 217.359 139.547 215.807 139.427C212.708 139.182 209.672 138.964 206.708 138.661C203.745 138.396 200.859 138.073 198.047 137.755C192.422 137.089 187.099 136.375 182.12 135.568C172.161 133.984 163.552 132.208 156.526 130.516C154.771 130.104 153.115 129.672 151.552 129.286C150.776 129.094 150.021 128.896 149.297 128.693C148.568 128.495 147.865 128.302 147.193 128.115C144.484 127.401 142.203 126.688 140.354 126.146C139.51 125.891 138.766 125.656 138.104 125.443C137.198 126.734 136.281 128.026 135.349 129.318L135.708 129.443L127.427 139.891L125.057 142.979L124.984 142.969C124.885 143.094 124.786 143.219 124.687 143.339C125.068 143.406 125.474 143.479 125.901 143.552C129.745 144.161 135.359 145.104 142.536 145.99C149.714 146.875 158.432 147.786 168.443 148.469C178.448 149.156 189.75 149.583 202.052 149.641C203.589 149.661 205.146 149.63 206.719 149.63C208.281 149.62 209.875 149.63 211.464 149.599C214.651 149.521 217.854 149.5 221.229 149.37C227.859 149.193 234.693 148.844 241.703 148.385C255.724 147.438 270.448 145.922 285.5 143.547C300.542 141.167 315.943 137.948 331.042 133.406C337.104 131.583 343.109 129.51 348.953 127.151C348.922 126.906 348.885 126.656 348.844 126.411Z" fill="#50A9E3"/>
</g>
<path d="M50.6315 253.501V246.157H35.7617V218.084H27.5065V253.501H50.6315Z" fill="#50A9E3"/>
<path d="M58.7538 223.344C61.8788 223.344 63.5715 221.443 63.5715 219.021C63.5715 216.652 61.8788 214.672 58.7798 214.672C55.733 214.672 54.0403 216.652 54.0403 219.021C54.0403 221.417 55.759 223.344 58.7538 223.344ZM62.7903 253.501V226.521H54.7694V253.501H62.7903Z" fill="#50A9E3"/>
<path d="M79.4035 254.386C85.966 254.386 91.1743 251.469 91.1743 245.167C91.1743 239.568 87.3462 237.615 81.2003 236.73C76.9035 236.105 76.3305 235.714 76.3305 234.204C76.3305 233.084 77.1378 232.146 79.143 232.146C81.4347 232.146 82.5024 233.266 82.6066 234.777L90.4451 234.829C90.4451 229.308 85.8097 225.662 79.117 225.662C72.3722 225.662 68.466 228.917 68.466 234.386C68.466 240.089 72.9451 242.433 78.3097 243.084C81.4607 243.501 82.9712 244.047 82.9712 245.636C82.9712 247.068 82.0337 248.084 79.4555 248.084C76.617 248.084 75.3149 246.678 75.1847 244.698L67.5024 244.646C67.5024 249.49 71.1222 254.386 79.4035 254.386Z" fill="#50A9E3"/>
<path d="M113.229 253.501V246.886H108.984C107.291 246.886 105.937 245.974 105.937 243.344V233.344H113.229V226.521H105.937V218.683L97.9165 218.735V226.521H92.7342V233.344H97.9165V242.98C97.9165 252.329 103.281 253.501 107.265 253.501H113.229Z" fill="#50A9E3"/>
<path d="M134.867 254.308C142.394 254.308 150.883 249.855 152.394 239.542H143.956C142.732 244.724 139.008 246.756 134.633 246.756C128.904 246.756 124.19 242.797 124.19 235.766C124.19 228.917 128.904 224.751 134.633 224.751C139.034 224.751 142.732 226.808 143.982 231.99H152.394C150.883 221.652 142.315 217.198 134.867 217.198C124.373 217.198 115.935 225.428 115.935 235.74C115.935 246.027 124.373 254.308 134.867 254.308Z" fill="#50A9E3"/>
<path d="M164.89 253.501V216.808H156.869V253.501H164.89Z" fill="#50A9E3"/>
<path d="M197.623 239.803C197.623 232.12 192.232 225.662 183.795 225.662C175.357 225.662 169.55 232.146 169.55 240.011C169.55 247.876 175.383 254.36 183.795 254.36C191.034 254.36 195.852 249.49 197.05 244.698H188.456C187.857 246.261 186.451 247.459 183.638 247.459C180.539 247.459 178.222 245.61 177.571 242.016H197.466C197.571 241.183 197.623 240.662 197.623 239.803ZM177.883 236.599C178.873 233.474 181.347 232.251 183.821 232.251C186.711 232.251 189.159 234.099 189.42 236.599H177.883Z" fill="#50A9E3"/>
<path d="M212.828 254.386C216.76 254.386 219.937 252.823 221.578 250.089V253.501H229.208V226.521H221.604V229.985C219.963 227.224 216.76 225.662 212.776 225.662C205.667 225.662 200.406 232.146 200.406 240.011C200.406 247.928 205.588 254.386 212.828 254.386ZM214.781 246.99C211.37 246.99 208.349 244.594 208.349 240.011C208.349 235.662 211.266 233.032 214.807 233.032C218.401 233.032 221.266 236.131 221.266 240.011C221.266 243.969 218.453 246.99 214.781 246.99Z" fill="#50A9E3"/>
<path d="M243.424 253.501V240.115C243.424 235.297 246.21 233.006 249.257 233.006C252.252 233.006 254.283 234.724 254.283 239.204V253.501H262.304V239.021C262.304 230.688 258.866 225.662 251.523 225.662C247.799 225.662 244.596 227.355 243.059 229.777V226.521H235.403V253.501H243.424Z" fill="#50A9E3"/>
<path d="M272.613 254.256C275.322 254.256 277.066 252.407 277.066 250.141C277.066 247.902 275.322 246.027 272.639 246.027C269.957 246.027 268.238 247.902 268.238 250.141C268.238 252.407 269.957 254.256 272.613 254.256Z" fill="#50A9E3"/>
<path d="M287.065 223.344C290.19 223.344 291.883 221.443 291.883 219.021C291.883 216.652 290.19 214.672 287.091 214.672C284.044 214.672 282.351 216.652 282.351 219.021C282.351 221.417 284.07 223.344 287.065 223.344ZM291.101 253.501V226.521H283.081V253.501H291.101Z" fill="#50A9E3"/>
<path d="M310.084 254.36C318.652 254.36 324.564 247.954 324.564 240.011C324.564 232.12 318.652 225.662 310.11 225.662C301.621 225.662 295.761 232.146 295.761 240.011C295.761 247.928 301.647 254.36 310.084 254.36ZM310.162 246.964C306.386 246.964 303.704 244.126 303.704 240.011C303.704 235.922 306.386 233.058 310.162 233.058C313.939 233.058 316.621 235.922 316.621 240.011C316.621 244.126 313.939 246.964 310.162 246.964Z" fill="#50A9E3"/>
</svg>
