<svg width="238" height="64" viewBox="0 0 238 64" fill="none" xmlns="http://www.w3.org/2000/svg">
<path d="M69.776 55V22.424H76.176V26.584C77.2 25.048 78.4587 23.8533 79.952 23C81.488 22.104 83.216 21.656 85.136 21.656C86.4587 21.6987 87.5467 21.8907 88.4 22.232V27.992C87.8027 27.736 87.184 27.5653 86.544 27.48C85.904 27.352 85.264 27.288 84.624 27.288C82.7467 27.288 81.0827 27.8 79.632 28.824C78.1813 29.8053 77.0293 31.256 76.176 33.176V55H69.776ZM105.267 55.576C102.067 55.576 99.1657 54.8293 96.563 53.336C94.003 51.8427 91.955 49.816 90.419 47.256C88.9257 44.696 88.179 41.8373 88.179 38.68C88.179 35.5653 88.9043 32.7493 90.355 30.232C91.8057 27.672 93.7683 25.6453 96.243 24.152C98.7177 22.616 101.47 21.848 104.499 21.848C107.528 21.848 110.216 22.616 112.563 24.152C114.91 25.6453 116.766 27.6933 118.131 30.296C119.539 32.856 120.243 35.7573 120.243 39V40.792H94.579C94.9203 42.584 95.5817 44.184 96.563 45.592C97.587 47 98.867 48.1093 100.403 48.92C101.982 49.7307 103.688 50.136 105.523 50.136C107.102 50.136 108.616 49.9013 110.067 49.432C111.56 48.92 112.798 48.1947 113.779 47.256L117.875 51.288C115.955 52.7387 113.971 53.8267 111.923 54.552C109.918 55.2347 107.699 55.576 105.267 55.576ZM94.643 35.992H113.907C113.651 34.2853 113.054 32.792 112.115 31.512C111.219 30.1893 110.088 29.1653 108.723 28.44C107.4 27.672 105.95 27.288 104.371 27.288C102.75 27.288 101.256 27.6507 99.891 28.376C98.5257 29.1013 97.3737 30.1253 96.435 31.448C95.539 32.728 94.9417 34.2427 94.643 35.992ZM128.265 55V27.8H120.713V22.424H128.265V17.496C128.265 14.0827 129.204 11.48 131.081 9.688C133.001 7.896 135.732 7 139.273 7C140.169 7 141.001 7.064 141.769 7.192C142.58 7.27733 143.305 7.42666 143.945 7.64V13.144C143.177 12.9307 142.494 12.7813 141.897 12.696C141.3 12.568 140.638 12.504 139.913 12.504C138.121 12.504 136.777 12.9307 135.881 13.784C135.028 14.5947 134.601 15.896 134.601 17.688V22.424H143.945V27.8H134.601V55H128.265ZM146.839 55V10.2L153.239 8.984V55H146.839ZM174.264 55.64C171.107 55.64 168.227 54.8933 165.624 53.4C163.064 51.9067 161.037 49.88 159.544 47.32C158.051 44.76 157.304 41.9013 157.304 38.744C157.304 35.5867 158.051 32.728 159.544 30.168C161.037 27.608 163.064 25.5813 165.624 24.088C168.227 22.552 171.107 21.784 174.264 21.784C177.464 21.784 180.344 22.552 182.904 24.088C185.464 25.5813 187.491 27.608 188.984 30.168C190.477 32.728 191.224 35.5867 191.224 38.744C191.224 41.9013 190.477 44.76 188.984 47.32C187.491 49.88 185.464 51.9067 182.904 53.4C180.344 54.8933 177.464 55.64 174.264 55.64ZM174.264 50.008C176.269 50.008 178.083 49.5173 179.704 48.536C181.325 47.512 182.605 46.1467 183.544 44.44C184.483 42.7333 184.952 40.8133 184.952 38.68C184.952 36.5893 184.461 34.712 183.48 33.048C182.541 31.3413 181.261 29.976 179.64 28.952C178.061 27.928 176.269 27.416 174.264 27.416C172.259 27.416 170.445 27.928 168.824 28.952C167.245 29.976 165.965 31.3413 164.984 33.048C164.045 34.712 163.576 36.5893 163.576 38.68C163.576 40.8133 164.045 42.7333 164.984 44.44C165.923 46.1467 167.203 47.512 168.824 48.536C170.445 49.5173 172.259 50.008 174.264 50.008ZM200.731 55L191.643 22.424H197.851L204.187 46.36L211.611 22.424H217.115L224.539 46.36L230.875 22.424H236.891L227.739 55H221.595L214.299 31.128L206.939 55H200.731Z" fill="white"/>
<circle cx="29" cy="35" r="29" fill="#22281E"/>
<path d="M27.161 45.6416L13.1201 34.721L27.161 23.8003V45.6416Z" stroke="#A8FF9A" stroke-width="2" stroke-linecap="round" stroke-linejoin="round"/>
<path d="M44.3221 45.6416L30.2812 34.721L44.3221 23.8003V45.6416Z" stroke="#A8FF9A" stroke-width="2" stroke-linecap="round" stroke-linejoin="round"/>
</svg>
